<svg xmlns="http://www.w3.org/2000/svg" viewBox="0 0 8.467 8.467" fill="currentColor">
  <path
    d="M1.059 0C.472 0 0 .472 0 1.058v6.35c0 .586.472 1.058 1.058 1.058h6.35c.586 0 1.058-.472 1.058-1.058v-6.35C8.467.472 7.995 0 7.409 0zm4.5 2.117h1.23v.794h-1.23v-.794zm-1.587 0h1.23v.794h-1.23v-.794zm-1.587 0h1.23v.794h-1.23v-.794zm3.174 1.058h1.23v.794h-1.23v-.794zm-1.587 0h1.23v.794h-1.23v-.794zm-1.587 0h1.23v.794h-1.23v-.794zm3.174 1.059h1.23v.794h-1.23v-.794zm-1.587 0h1.23v.794h-1.23v-.794zm-1.587 0h1.23v.794h-1.23v-.794zm-1.587 1.058h1.23v.794h-1.23v-.794zm1.587 0h1.23v.794h-1.23v-.794zm1.587 0h1.23v.794h-1.23v-.794zm1.587 0h1.23v.794h-1.23v-.794z"
    fill-rule="evenodd"
  />
</svg>
