<?xml version="1.0" standalone="no"?>
<!DOCTYPE svg PUBLIC "-//W3C//DTD SVG 20010904//EN"
 "http://www.w3.org/TR/2001/REC-SVG-20010904/DTD/svg10.dtd">
<svg version="1.0" xmlns="http://www.w3.org/2000/svg"
 width="1200.000000pt" height="1200.000000pt" viewBox="0 0 1200.000000 1200.000000"
 preserveAspectRatio="xMidYMid meet">

<g transform="translate(0.000000,1200.000000) scale(0.100000,-0.100000)"
fill="#000000" stroke="none">
<path d="M1355 11993 c-457 -55 -827 -270 -1084 -630 -110 -154 -189 -332
-238 -538 l-28 -120 0 -4690 0 -4690 22 -110 c125 -616 591 -1076 1207 -1193
85 -16 377 -17 4766 -17 4488 0 4679 1 4765 18 303 62 554 191 764 392 241
232 376 478 448 822 16 72 17 457 20 4673 3 2941 0 4635 -6 4705 -45 502 -302
919 -723 1173 -141 85 -287 142 -478 185 l-95 21 -4655 2 c-2560 0 -4668 -1
-4685 -3z m5190 -1127 c453 -57 835 -152 1230 -307 182 -71 573 -262 581 -284
4 -9 -37 -95 -101 -213 -174 -318 -205 -372 -221 -372 -7 0 -100 41 -206 91
-483 229 -885 342 -1423 401 -185 20 -684 17 -865 -5 -938 -116 -1769 -507
-2409 -1132 -752 -733 -1178 -1620 -1272 -2645 -16 -170 -6 -702 16 -880 42
-349 155 -759 302 -1105 206 -482 480 -886 885 -1301 l89 -90 -242 -263 -242
-263 -54 54 c-393 382 -765 898 -995 1376 -238 498 -366 931 -450 1522 -21
151 -23 199 -23 580 1 469 10 577 85 950 208 1040 739 1969 1525 2670 250 222
551 441 819 595 627 359 1320 571 2071 634 172 15 746 6 900 -13z m-15 -735
c438 -66 802 -172 1171 -341 173 -79 278 -136 285 -155 3 -8 -53 -124 -126
-260 -178 -334 -205 -380 -223 -383 -8 -2 -52 15 -97 38 -123 62 -370 162
-513 209 -339 110 -661 161 -1022 161 -679 0 -1305 -186 -1865 -555 -343 -226
-701 -581 -929 -920 -292 -435 -463 -872 -542 -1386 -45 -298 -43 -728 6
-1022 115 -694 406 -1281 885 -1789 l120 -126 -197 -214 c-108 -117 -223 -241
-254 -275 l-58 -62 -115 120 c-311 325 -539 649 -737 1048 -243 490 -374 962
-420 1509 -15 181 -7 609 16 792 146 1195 765 2240 1724 2914 158 111 305 197
511 299 487 243 897 357 1505 421 22 2 198 3 390 1 288 -3 374 -7 485 -24z
m3191 -981 c653 -784 1050 -1758 1119 -2745 13 -182 13 -628 0 -775 -90 -1044
-517 -2037 -1205 -2808 -426 -477 -905 -848 -1445 -1118 -247 -124 -339 -164
-535 -237 -569 -211 -1201 -311 -1809 -286 -242 9 -374 21 -556 49 -527 82
-1025 242 -1521 490 -109 55 -107 49 -50 154 85 157 271 480 285 495 12 11 45
-1 212 -77 318 -143 495 -209 738 -272 375 -97 640 -130 1040 -130 562 1 1031
88 1550 290 151 59 517 244 657 332 401 253 725 539 1021 899 463 565 765
1232 887 1956 42 249 55 461 48 793 -7 352 -39 584 -127 926 -176 681 -504
1278 -993 1804 l-116 124 57 61 c32 33 136 145 232 249 l174 189 121 -124 c66
-68 163 -176 216 -239z m-3236 187 c305 -48 621 -143 910 -273 162 -73 240
-118 239 -137 -1 -15 -328 -623 -344 -640 -4 -5 -59 17 -121 48 -224 113 -465
194 -718 241 -163 30 -492 43 -687 26 -505 -44 -1023 -263 -1409 -594 -348
-299 -572 -611 -738 -1028 -161 -403 -212 -871 -147 -1331 71 -492 317 -998
668 -1369 l89 -95 -56 -60 c-31 -33 -139 -150 -240 -260 -101 -110 -191 -208
-200 -218 -16 -16 -25 -8 -153 135 -75 84 -163 187 -195 228 -344 437 -564
950 -659 1539 -31 190 -44 590 -25 786 53 558 238 1080 545 1538 139 207 245
336 431 523 525 526 1183 847 1945 949 146 19 723 14 865 -8z m2584 -542 c544
-607 894 -1357 1021 -2190 18 -115 23 -202 27 -480 3 -216 1 -385 -6 -463 -66
-720 -326 -1411 -758 -2018 -149 -208 -216 -287 -433 -504 -219 -219 -325
-310 -520 -450 -629 -449 -1377 -711 -2155 -755 -193 -11 -658 11 -849 39
-289 44 -604 128 -876 233 -157 61 -470 213 -470 229 0 10 166 310 332 601
l24 42 55 -25 c396 -184 644 -265 1014 -331 156 -27 169 -28 525 -28 256 0
392 4 455 14 401 60 748 170 1098 348 514 262 941 647 1272 1148 260 393 421
809 512 1323 27 153 28 167 28 517 -1 348 -2 365 -28 508 -127 694 -381 1229
-819 1728 -47 54 -95 110 -106 126 l-21 30 131 144 c72 79 185 202 251 272
l120 128 34 -33 c19 -18 83 -87 142 -153z m-2882 -225 c249 -15 483 -65 733
-157 127 -47 340 -151 340 -166 0 -23 -338 -622 -353 -625 -8 -2 -59 17 -113
41 -280 124 -446 165 -714 174 -308 11 -581 -44 -845 -172 -843 -406 -1235
-1379 -908 -2255 82 -220 193 -400 367 -594 l58 -66 -37 -42 c-21 -24 -133
-143 -248 -266 l-210 -224 -64 64 c-388 380 -658 960 -703 1503 -41 513 34
931 244 1360 292 594 774 1035 1387 1269 185 71 359 114 584 146 154 21 250
23 482 10z m2323 -347 c346 -399 600 -886 729 -1398 77 -308 95 -478 88 -873
-4 -276 -7 -321 -31 -451 -68 -373 -165 -657 -335 -987 -152 -296 -346 -559
-596 -810 -399 -401 -868 -684 -1385 -839 -392 -117 -708 -154 -1152 -135
-372 16 -687 83 -1036 221 -121 49 -362 164 -362 174 0 5 102 187 317 568 24
42 46 77 49 77 2 0 36 -16 74 -35 222 -112 554 -213 810 -247 138 -18 497 -15
650 6 757 102 1398 501 1821 1135 153 229 267 482 335 746 221 850 19 1707
-555 2365 -50 57 -90 107 -89 111 2 3 117 126 257 273 l255 266 34 -32 c19
-18 74 -79 122 -135z m-626 -490 c315 -340 516 -748 617 -1245 29 -143 29
-156 29 -435 1 -245 -3 -306 -20 -408 -45 -266 -118 -487 -241 -735 -232 -466
-593 -840 -1054 -1092 -206 -113 -501 -220 -720 -262 -203 -38 -234 -41 -495
-41 -230 1 -282 4 -394 23 -222 39 -422 96 -605 175 -139 59 -183 86 -176 106
5 14 334 611 341 620 2 2 53 -17 114 -43 148 -63 201 -81 333 -110 446 -99
940 -17 1317 217 247 154 465 374 613 619 241 399 315 931 192 1385 -68 250
-192 485 -368 700 l-59 72 53 60 c167 185 435 470 443 471 5 0 41 -34 80 -77z
m-1611 -338 c258 -53 509 -187 693 -370 197 -195 304 -381 377 -655 29 -109
31 -125 31 -310 1 -222 -10 -300 -59 -447 -66 -199 -164 -359 -315 -516 -191
-200 -402 -323 -680 -398 -77 -21 -107 -23 -315 -23 -217 0 -236 1 -330 26
-405 108 -728 369 -905 733 -112 228 -135 335 -135 615 1 235 14 312 84 492
119 304 323 539 606 700 140 80 343 150 490 169 93 12 370 3 458 -16z"/>
<path d="M5865 7354 c-172 -27 -315 -69 -437 -129 -368 -182 -629 -518 -715
-917 -14 -64 -18 -129 -18 -278 0 -183 2 -201 29 -300 136 -498 494 -849 991
-971 103 -25 337 -36 462 -20 275 34 557 174 759 377 181 183 295 394 359 664
21 92 30 316 16 426 -25 203 -129 458 -255 625 -195 258 -504 452 -805 504
-87 16 -331 27 -386 19z m201 -1109 c189 -56 202 -313 19 -396 -103 -47 -225
4 -276 116 -36 79 -19 159 50 225 68 67 121 81 207 55z"/>
</g>
</svg>
