<svg xmlns="http://www.w3.org/2000/svg" viewBox="0 0 24 24">
  <path d="M10.584 17.21l-.88-2.392s-1.43 1.594-3.573 1.594c-1.897 0-3.244-1.65-3.244-4.289 0-3.381 1.704-4.59 3.382-4.59 2.419 0 3.188 1.568 3.853 3.574l.88 2.75c.88 2.666 2.529 4.81 7.285 4.81 3.41 0 5.722-1.045 5.722-3.796 0-2.23-1.267-3.383-3.63-3.936l-1.76-.385c-1.21-.276-1.567-.77-1.567-1.595 0-.935.742-1.485 1.952-1.485 1.32 0 2.034.494 2.144 1.677l2.75-.33c-.22-2.475-1.924-3.492-4.731-3.492-2.474 0-4.893.935-4.893 3.934 0 1.873.907 3.05 3.188 3.604l1.869.44c1.402.33 1.867.907 1.867 1.704 0 1.017-.988 1.43-2.86 1.43-2.776 0-3.906-1.457-4.561-3.464l-.907-2.75c-1.155-3.573-2.997-4.894-6.653-4.894C2.144 5.24 0 7.74 0 12.353c0 4.454 2.144 6.87 5.997 6.87 3.108 0 4.587-1.457 4.587-1.457v-.557z" style="fill:#d51007;"/>
</svg>
